<svg xmlns="http://www.w3.org/2000/svg" id="picture" viewBox="0 0 512 512">
  <g>
    <path d="M388.51,472.48L43.79,380.11c-13.63-3.65-21.72-17.67-18.07-31.3L92.19,100.77c3.65-13.63,17.67-21.72,31.3-18.07l344.72,92.37c13.63,3.65,21.72,17.67,18.07,31.3l-66.46,248.05c-3.65,13.63-17.67,21.72-31.3,18.07Z" style="fill:#4f93f0"></path>
    <path d="M253.25,117.46l-129.76-34.77c-13.63-3.65-27.65,4.44-31.3,18.07L25.72,348.81c-3.65,13.63,4.44,27.65,18.07,31.3l216.21,57.93c-67.54-88.95-50.79-238.41-6.76-320.59Z" style="fill:#2f72ea"></path>
    <path d="M173.67,181.89c-39.95-10.71-80.59-.1-109.87,24.83l-35.51,132.51c5.86,16.46,15.22,31.53,27.45,44.08l119.34,31.98c39.72-11.2,72.7-42.44,84.16-85.19,17.3-64.56-21.01-130.91-85.57-148.21Z" style="fill:#72d98b"></path>
    <path d="M175.08,415.29c21.04-5.93,40.19-17.49,55.25-33.4-19.05-54.25-19.31-117.78-8.14-174.08-13.53-11.9-29.94-20.95-48.52-25.93-39.95-10.71-80.59-.1-109.87,24.83l-35.51,132.51c5.86,16.46,15.22,31.53,27.45,44.08l119.34,31.98Z" style="fill:#00c67f"></path>
    <path d="M419.81,454.41l18.25-68.1c-10.34-41.23-42.13-75.77-86.1-87.55-64.56-17.3-130.91,21.01-148.21,85.57-3.37,12.58-4.62,25.23-3.99,37.57l188.75,50.57c13.63,3.65,27.65-4.44,31.3-18.07Z" style="fill:#ff6e80"></path>
    <path d="M203.75,384.33c-3.37,12.58-4.62,25.23-3.99,37.57l60.24,16.14c-19.85-26.15-32.43-57.52-39.16-90.89-7.57,11.03-13.44,23.51-17.1,37.17Z" style="fill:#f8475e"></path>
    <path d="M465.39,155.05L135.93,66.77c-29.22-7.83-59.25,9.51-67.08,38.73L7.88,333.05c-7.83,29.22,9.51,59.25,38.73,67.08l329.47,88.28c29.22,7.83,59.25-9.51,67.08-38.73l60.97-227.55c7.83-29.22-9.51-59.25-38.73-67.08ZM407.21,432.74c-3.25,12.13-15.72,19.32-27.84,16.08L63.55,364.19c-12.13-3.25-19.32-15.72-16.08-27.84l57.32-213.91c3.25-12.13,15.72-19.32,27.84-16.08l315.82,84.62c12.13,3.25,19.32,15.72,16.08,27.84l-57.32,213.91Z" style="fill:#eeecff"></path>
    <path d="M47.47,336.35l57.32-213.91c3.25-12.13,15.72-19.32,27.84-16.08l111.53,29.88c5.73-13.13,12.11-25.05,18.97-35.39l-127.2-34.08c-29.22-7.83-59.25,9.51-67.08,38.73L7.88,333.05c-7.83,29.22,9.51,59.25,38.73,67.08l237.27,63.58c-16.68-14.6-29.94-32-40.21-51.25l-180.12-48.26c-12.13-3.25-19.32-15.72-16.08-27.84Z" style="fill:#d3d3ff"></path>
    <path d="M309.12,138.39l15.87-8.07c6.91-3.51,6.91-13.39,0-16.9l-15.87-8.07c-11.8-6-21.39-15.59-27.38-27.38l-8.07-15.87c-3.51-6.91-13.39-6.91-16.9,0l-8.07,15.87c-6,11.8-15.59,21.39-27.38,27.38l-15.87,8.07c-6.91,3.51-6.91,13.39,0,16.9l15.87,8.07c11.8,6,21.39,15.59,27.38,27.38l8.07,15.87c3.51,6.91,13.39,6.91,16.9,0l8.07-15.87c6-11.8,15.59-21.39,27.38-27.38Z" style="fill:#f5c956"></path>
    <path d="M362.07,238.55l7.76-3.95c3.38-1.72,3.38-6.55,0-8.27l-7.76-3.95c-5.77-2.93-10.46-7.62-13.39-13.39l-3.95-7.76c-1.72-3.38-6.55-3.38-8.27,0l-3.95,7.76c-2.93,5.77-7.62,10.46-13.39,13.39l-7.76,3.95c-3.38,1.72-3.38,6.55,0,8.27l7.76,3.95c5.77,2.93,10.46,7.62,13.39,13.39l3.95,7.76c1.72,3.38,6.55,3.38,8.27,0l3.95-7.76c2.93-5.77,7.62-10.46,13.39-13.39Z" style="fill:#f5eb7d"></path>
    <path d="M436.47,79.18l11.19-5.69c4.87-2.48,4.87-9.44,0-11.92l-11.19-5.69c-8.32-4.23-15.08-10.99-19.31-19.31l-5.69-11.19c-2.48-4.87-9.44-4.87-11.92,0l-5.69,11.19c-4.23,8.32-10.99,15.08-19.31,19.31l-11.19,5.69c-4.87,2.48-4.87,9.44,0,11.92l11.19,5.69c8.32,4.23,15.08,10.99,19.31,19.31l5.69,11.19c2.48,4.87,9.44,4.87,11.92,0l5.69-11.19c4.23-8.32,10.99-15.08,19.31-19.31Z" style="fill:#f7ac3e"></path>
    <path d="M156.39,300.33c11.11,2.98,22.53-3.62,25.51-14.73,2.37-8.86-9.07-12.53-17.59-14.81-8.52-2.28-20.27-4.83-22.64,4.03-2.98,11.11,3.62,22.53,14.73,25.51Z" style="fill:#2f445e"></path>
  </g>
  <path d="M264.74,343.46c-8.23-2.21-16.99,1.39-21.28,8.75-1.67,2.86-.7,6.54,2.16,8.21,2.86,1.67,6.54.7,8.21-2.16,1.57-2.7,4.79-4.02,7.81-3.21,3.02.81,5.14,3.56,5.16,6.68.01,3.3,2.7,5.97,6,5.97h.03c3.31-.01,5.99-2.71,5.97-6.03-.04-8.52-5.82-16.01-14.05-18.22ZM333.86,384.35c-5.93,2.77-12.17,3.41-18.04,1.83-5.88-1.58-10.96-5.24-14.71-10.61-1.9-2.72-5.64-3.38-8.35-1.48-2.72,1.9-3.38,5.64-1.48,8.35,5.38,7.71,12.8,13.01,21.44,15.33,3.15.84,6.35,1.26,9.56,1.26,5.61,0,11.26-1.28,16.67-3.81,3-1.4,4.3-4.98,2.89-7.98-1.4-3-4.98-4.3-7.98-2.89ZM360.62,78.84l11.19,5.69c7.24,3.68,13.01,9.45,16.68,16.68l5.69,11.19c2.18,4.28,6.51,6.94,11.31,6.94h0c4.8,0,9.13-2.66,11.31-6.94l5.69-11.19c3.68-7.24,9.45-13,16.68-16.68l11.19-5.69c4.28-2.18,6.94-6.51,6.94-11.31s-2.66-9.13-6.94-11.31l-11.19-5.69c-7.24-3.68-13-9.45-16.68-16.68l-5.69-11.2c-2.18-4.28-6.51-6.94-11.31-6.94-4.8,0-9.13,2.66-11.31,6.94l-5.69,11.19c-3.68,7.24-9.45,13-16.68,16.68l-11.19,5.69c-4.28,2.18-6.94,6.51-6.94,11.31s2.66,9.13,6.94,11.31ZM366.06,66.92l11.19-5.69c9.52-4.84,17.1-12.43,21.94-21.94l5.69-11.19c.06-.11.19-.38.61-.38.42,0,.56.26.61.38l5.69,11.19c4.84,9.51,12.43,17.1,21.94,21.94l11.19,5.69c.11.06.38.19.38.61s-.26.55-.38.61l-11.19,5.69c-9.52,4.84-17.1,12.43-21.94,21.94l-5.69,11.19c-.06.11-.19.38-.61.38s-.55-.26-.61-.38l-5.69-11.19c-4.84-9.52-12.43-17.1-21.94-21.94l-11.19-5.69c-.11-.06-.38-.19-.38-.61s.26-.55.38-.61ZM466.95,149.26l-133.17-35.68c-1.46-2.3-3.52-4.21-6.06-5.51l-15.87-8.07c-10.74-5.46-19.3-14.02-24.76-24.76l-8.07-15.87c-2.66-5.22-7.94-8.46-13.8-8.46-5.86,0-11.14,3.24-13.8,8.46l-8.07,15.87c-2.21,4.36-4.95,8.35-8.12,11.92l-97.75-26.19c-32.37-8.68-65.75,10.6-74.42,42.97L2.08,331.5c-4.2,15.68-2.04,32.05,6.07,46.11,8.12,14.06,21.22,24.11,36.9,28.31l329.47,88.28c5.25,1.41,10.52,2.08,15.71,2.08,26.83,0,51.44-17.93,58.71-45.05l60.97-227.55c8.67-32.37-10.6-65.75-42.97-74.42ZM254.04,80.68l8.07-15.87c.87-1.72,2.46-1.9,3.1-1.9s2.23.19,3.1,1.9l8.07,15.87c6.62,13.02,17,23.39,30.01,30.01l15.87,8.07c1.72.87,1.9,2.46,1.9,3.1s-.19,2.23-1.9,3.1l-15.87,8.07c-13.01,6.62-23.39,17-30.01,30.01l-8.07,15.87c-.87,1.72-2.46,1.9-3.1,1.9s-2.23-.19-3.1-1.9l-8.07-15.87c-6.62-13.02-17-23.4-30.01-30.01l-15.87-8.07c-1.72-.87-1.9-2.46-1.9-3.1s.19-2.23,1.9-3.1l15.87-8.07c13.02-6.62,23.39-17,30.01-30.01ZM209.55,385.89c16.41-61.26,79.6-97.74,140.86-81.33,30.14,8.08,55.03,27.39,70.33,54.51l-19.32,72.12c-1.16,4.32-3.92,7.93-7.8,10.16s-8.38,2.83-12.7,1.67l-173.66-46.53c.61-3.61,1.36-7.16,2.28-10.6ZM197.96,382.78c-.92,3.44-1.69,6.99-2.32,10.59l-130.54-34.98c-4.32-1.16-7.93-3.93-10.16-7.8-2.23-3.87-2.83-8.38-1.67-12.7l38.1-142.2c25.08-12.42,53.65-15.28,80.74-8.02,53.08,14.22,88.43,63.56,85.05,118.02-28.17,16.26-50.15,43.25-59.21,77.07ZM353.52,292.97c-29.08-7.79-58.54-4.78-84.13,6.54.45-57.37-37.8-108.32-94.16-123.42-26.62-7.13-54.52-5.42-79.86,4.71l15.22-56.81c2.39-8.91,11.58-14.22,20.49-11.83l65.27,17.49c1.47,2.53,3.65,4.63,6.37,6.02l15.87,8.07c10.74,5.46,19.3,14.02,24.76,24.76l8.07,15.87c2.65,5.22,7.94,8.46,13.8,8.46h0c5.86,0,11.14-3.24,13.8-8.46l8.07-15.87c2.29-4.5,5.13-8.61,8.43-12.27l151.38,40.56c4.32,1.16,7.93,3.93,10.16,7.8,2.23,3.87,2.83,8.38,1.67,12.7l-33.75,125.97c-17.06-24.73-41.98-42.38-71.46-50.28ZM498.32,220.57l-60.97,227.55c-6.96,25.97-33.75,41.44-59.73,34.48L48.16,394.33c-12.58-3.37-23.1-11.44-29.61-22.72-6.51-11.28-8.24-24.42-4.87-37l60.97-227.55c6.96-25.97,33.75-41.44,59.73-34.48l89.93,24.1c-1.83,1.21-3.73,2.33-5.71,3.33l-15.87,8.07c-3.68,1.87-6.37,5.05-7.64,8.81l-60.9-16.32c-15.3-4.1-31.09,5.01-35.19,20.32l-57.32,213.91c-1.99,7.41-.97,15.16,2.87,21.8,3.84,6.65,10.03,11.4,17.45,13.39l315.82,84.62c2.48.66,4.99.99,7.48.99,4.98,0,9.89-1.31,14.32-3.86,6.65-3.84,11.4-10.03,13.39-17.45l57.32-213.91c1.99-7.41.97-15.16-2.87-21.8-3.84-6.65-10.03-11.4-17.45-13.39l-143.4-38.42c1.68-1.09,3.43-2.11,5.24-3.03l15.87-8.07c3.81-1.94,6.56-5.28,7.77-9.21l128.36,34.39c25.97,6.96,41.44,33.75,34.48,59.73ZM180.41,270.67c-4.23-2.69-9.49-4.32-14.55-5.67-5.05-1.35-10.41-2.58-15.44-2.36-10.3.45-13.54,6.85-14.55,10.64-3.83,14.29,4.68,29.03,18.97,32.85,2.31.62,4.66.93,6.99.93,4.65,0,9.24-1.22,13.37-3.61,6.21-3.58,10.64-9.37,12.5-16.29,1.01-3.78,1.41-10.95-7.29-16.49ZM176.1,284.05c-1.02,3.83-3.48,7.02-6.91,9-3.43,1.98-7.43,2.5-11.25,1.48-7.9-2.12-12.6-10.26-10.48-18.16.2-.76.43-1.62,3.48-1.75,3.42-.15,7.88.91,11.81,1.96,3.93,1.05,8.34,2.38,11.21,4.21,2.57,1.64,2.34,2.5,2.14,3.26ZM233.32,288.48c1.43-5.33-1.74-10.82-7.07-12.25-5.33-1.43-10.82,1.74-12.25,7.07s1.74,10.82,7.07,12.25c5.33,1.43,10.82-1.74,12.25-7.07ZM383.46,392.99c.01,3.3,2.7,5.97,6,5.97h.03c3.31-.01,5.99-2.71,5.97-6.03-.04-8.52-5.82-16.01-14.05-18.22-8.24-2.21-16.99,1.39-21.28,8.75-1.67,2.86-.7,6.54,2.16,8.21,2.86,1.67,6.54.7,8.21-2.16,1.57-2.7,4.79-4.02,7.81-3.21,3.02.81,5.14,3.56,5.16,6.68ZM372.56,220.99l-7.76-3.95c-4.67-2.37-8.39-6.09-10.76-10.76l-3.95-7.76c-1.82-3.59-5.46-5.82-9.48-5.82h0c-4.02,0-7.66,2.23-9.48,5.81l-3.95,7.76c-2.37,4.67-6.09,8.39-10.76,10.76l-7.76,3.95c-3.59,1.82-5.82,5.46-5.82,9.48s2.23,7.66,5.82,9.48l7.76,3.95c4.67,2.37,8.39,6.1,10.76,10.76l3.95,7.76c1.83,3.59,5.46,5.82,9.48,5.81,4.02,0,7.66-2.23,9.48-5.81l3.95-7.76c2.37-4.67,6.09-8.39,10.76-10.76l7.76-3.95c3.59-1.82,5.82-5.46,5.82-9.48s-2.23-7.66-5.82-9.48ZM359.36,233.2c-6.95,3.53-12.49,9.07-16.02,16.02l-2.73,5.37-2.73-5.37c-3.53-6.95-9.07-12.49-16.02-16.02l-5.37-2.73,5.37-2.73c6.95-3.53,12.49-9.07,16.02-16.02l2.73-5.37,2.73,5.37c3.53,6.95,9.07,12.49,16.02,16.02l5.37,2.73-5.37,2.73ZM107.94,244.53c-5.33-1.43-10.82,1.74-12.25,7.07-1.43,5.33,1.74,10.82,7.07,12.25,5.33,1.43,10.82-1.74,12.25-7.07,1.43-5.33-1.74-10.82-7.07-12.25Z"></path>
</svg>